<?xml version="1.0" encoding="UTF-8" standalone="no"?>
<svg width="30px" height="30px" viewBox="0 0 30 30" version="1.1" xmlns="http://www.w3.org/2000/svg" xmlns:xlink="http://www.w3.org/1999/xlink">
    <!-- Generator: Sketch 3.8.3 (29802) - http://www.bohemiancoding.com/sketch -->
    <title>cd-icon-location-0</title>
    <desc>Created with Sketch.</desc>
    <defs></defs>
    <g id="Page-1" stroke="none" stroke-width="1" fill="none" fill-rule="evenodd">
        <g id="cd-icon-location" fill="#333333">
            <path d="M22.2418231,5.51880163 C21.8205765,4.52322712 21.2308312,3.61061715 20.3883379,2.86393627 C19.6300939,2.11725539 18.7033513,1.45353905 17.6923593,1.03871634 C16.597118,0.623893627 15.5018767,0.375 14.3223861,0.375 C13.1428955,0.375 12.0476542,0.623893627 10.9524129,1.03871634 C9.94142095,1.45353905 9.01467832,2.03429085 8.25643435,2.86393627 C7.49819038,3.61061715 6.82419573,4.52322712 6.40294908,5.51880163 C5.98170243,6.59734068 5.72895444,7.67587973 5.72895444,8.83738332 C5.72895444,10.7455678 7.07694372,13.8152559 9.77292229,17.963483 C11.7949062,21.033171 13.7326408,23.6050719 13.8168901,23.6050719 L14.2381368,24.1858237 L14.6593834,23.6050719 C14.6593834,23.6050719 16.6813674,21.033171 18.7033513,17.963483 C21.3993298,13.8152559 22.7473191,10.7455678 22.7473191,8.83738332 C22.9158178,7.67587973 22.6630698,6.59734068 22.2418231,5.51880163 L22.2418231,5.51880163 Z M14.3223861,11.7411423 C12.4689008,11.7411423 11.0366622,10.2477805 11.0366622,8.50552515 C11.0366622,6.68030522 12.5531502,5.269908 14.3223861,5.269908 C16.1758714,5.269908 17.60811,6.76326976 17.60811,8.50552515 C17.6923593,10.2477805 16.1758714,11.7411423 14.3223861,11.7411423 L14.3223861,11.7411423 Z" id="Shape"></path>
            <path d="M27.3810323,21.1991001 C26.6227883,20.5353838 25.6117963,19.954632 24.2638071,19.3738802 C23.1685658,18.9590575 21.9048258,18.6271993 20.5568365,18.3783057 C20.3883379,18.7101639 20.1355899,19.042022 19.8828419,19.3738802 C21.3150805,19.6227738 22.6630698,19.954632 23.8425604,20.4524192 C26.2015416,21.3650292 27.5495309,22.5265328 27.5495309,23.6880364 C27.5495309,24.84954 26.2015416,26.0110436 23.8425604,26.9236536 C21.3150805,27.9192281 17.9451073,28.4170153 14.3223861,28.4170153 C10.6996649,28.4170153 7.32969172,27.9192281 4.80221181,26.9236536 C2.44323057,26.0110436 1.09524129,24.84954 1.09524129,23.6880364 C1.09524129,22.5265328 2.44323057,21.3650292 4.80221181,20.4524192 C6.06595176,19.954632 7.49819038,19.6227738 9.01467832,19.3738802 C8.76193033,19.042022 8.59343167,18.7101639 8.34068368,18.3783057 C6.90844506,18.6271993 5.56045578,19.042022 4.38096516,19.4568447 C3.03297588,19.954632 2.02198392,20.5353838 1.26373995,21.1991001 C0.42124665,21.945781 0,22.7754264 0,23.6880364 C0,24.6006464 0.42124665,25.4302918 1.26373995,26.1769727 C2.02198392,26.840689 3.03297588,27.4214408 4.38096516,28.0021926 C7.07694372,28.9977671 10.6154156,29.5785189 14.3223861,29.5785189 C18.0293566,29.5785189 21.5678285,28.9977671 24.2638071,28.0021926 C25.6117963,27.5044053 26.6227883,26.9236536 27.3810323,26.1769727 C28.2235256,25.4302918 28.6447722,24.6006464 28.6447722,23.6880364 C28.6447722,22.7754264 28.2235256,21.945781 27.3810323,21.1991001 L27.3810323,21.1991001 Z" id="Shape"></path>
        </g>
    </g>
</svg>