<svg xmlns="http://www.w3.org/2000/svg" width="43" height="80" viewBox="0 0 43 80">
  <metadata><?xpacket begin="﻿" id="W5M0MpCehiHzreSzNTczkc9d"?>
<x:xmpmeta xmlns:x="adobe:ns:meta/" x:xmptk="Adobe XMP Core 5.6-c138 79.159824, 2016/09/14-01:09:01        ">
   <rdf:RDF xmlns:rdf="http://www.w3.org/1999/02/22-rdf-syntax-ns#">
      <rdf:Description rdf:about=""/>
   </rdf:RDF>
</x:xmpmeta>
                                                                                                    
                                                                                                    
                                                                                                    
                                                                                                    
                                                                                                    
                                                                                                    
                                                                                                    
                                                                                                    
                                                                                                    
                                                                                                    
                                                                                                    
                                                                                                    
                                                                                                    
                                                                                                    
                                                                                                    
                                                                                                    
                                                                                                    
                                                                                                    
                                                                                                    
                                                                                                    
                           
<?xpacket end="w"?></metadata>
<defs>
    <style>
      .cls-1 {
        fill: #a9abaa;
        fill-rule: evenodd;
      }
    </style>
  </defs>
  <path id="Forma_1" data-name="Forma 1" class="cls-1" d="M1413.28,956h-29.56a6.7,6.7,0,0,0-6.72,6.667v66.663a6.7,6.7,0,0,0,6.72,6.67h29.56a6.7,6.7,0,0,0,6.72-6.67V962.667A6.7,6.7,0,0,0,1413.28,956Zm4.03,73.33a4.012,4.012,0,0,1-4.03,4h-29.56a4.012,4.012,0,0,1-4.03-4v-4h37.62v4Zm-32.25-6.66V1020h5.38v2.67h-5.38Zm32.25,0h-24.19v-4a1.34,1.34,0,0,0-1.34-1.34h-8.06a1.349,1.349,0,0,0-1.35,1.34v4h-2.68V969.333h37.62v53.337Zm0-56h-37.62v-4a4.012,4.012,0,0,1,4.03-4h29.56a4.012,4.012,0,0,1,4.03,4v4Zm-26.87-5.334h16.12V964h-16.12v-2.667Zm6.72,66.667h2.68v2.67h-2.68V1028Zm10.52-53.333h6.94V972h-6.94a4.006,4.006,0,0,0-2.85,1.172l-8.29,8.216-8.12.8a6.669,6.669,0,0,0-6.05,6.639v5.84a1.345,1.345,0,0,0,1.35,1.333h4.16a6.729,6.729,0,0,0,13.17,0h13.57v-2.667h-13.57a0.181,0.181,0,0,0-.02-0.069,6.193,6.193,0,0,0-.35-1.11c-0.05-.127-0.12-0.243-0.18-0.366a5.144,5.144,0,0,0-.39-0.712,3.533,3.533,0,0,0-.28-0.377,5.306,5.306,0,0,0-.47-0.574c-0.12-.118-0.23-0.229-0.35-0.34a6.233,6.233,0,0,0-.57-0.464c-0.13-.1-0.27-0.19-0.4-0.278a7.437,7.437,0,0,0-.67-0.358c-0.14-.069-0.28-0.141-0.43-0.2a6.971,6.971,0,0,0-.8-0.246c-0.13-.035-0.26-0.08-0.4-0.107a6.4,6.4,0,0,0-2.55,0c-0.14.027-.27,0.072-0.41,0.107a7.639,7.639,0,0,0-.8.246c-0.14.059-.28,0.134-0.43,0.2a7.27,7.27,0,0,0-.66.358c-0.13.088-.27,0.181-0.4,0.278a6.233,6.233,0,0,0-.57.464c-0.12.111-.24,0.222-0.35,0.34a6.945,6.945,0,0,0-.48.574c-0.09.125-.19,0.245-0.27,0.377a5.144,5.144,0,0,0-.39.712c-0.06.123-.14,0.239-0.19,0.366a6.161,6.161,0,0,0-.34,1.11,0.207,0.207,0,0,1-.03.069h-2.81v-4.506a4.009,4.009,0,0,1,3.63-3.981l8.53-.846h17.4v-2.667H1400.4l6.33-6.275A1.331,1.331,0,0,1,1407.68,974.667Zm-13.21,16a4,4,0,1,1-4.03,4A4.012,4.012,0,0,1,1394.47,990.667Zm14.78-4h5.37v2.667h-5.37v-2.667Zm-16.13,6.667h2.69V996h-2.69v-2.667ZM1382.37,972h12.1v2.667h-12.1V972Zm0,5.333h6.72V980h-6.72v-2.667Zm9.41,26.667h-8.06a1.347,1.347,0,0,0-1.35,1.33v8a1.349,1.349,0,0,0,1.35,1.34h8.06a1.34,1.34,0,0,0,1.34-1.34v-8A1.338,1.338,0,0,0,1391.78,1004Zm-1.34,8h-5.38v-5.33h5.38V1012Zm5.37-8h9.41v2.67h-9.41V1004Zm0,5.33h18.81V1012h-18.81v-2.67Zm12.1-5.33h6.71v2.67h-6.71V1004Zm-12.1,13.33h9.41V1020h-9.41v-2.67Zm12.1,0h6.71V1020h-6.71v-2.67Z" transform="translate(-1377 -956)"/>
</svg>
