<svg xmlns="http://www.w3.org/2000/svg" width="79" height="79" viewBox="0 0 79 79">
  <metadata><?xpacket begin="﻿" id="W5M0MpCehiHzreSzNTczkc9d"?>
<x:xmpmeta xmlns:x="adobe:ns:meta/" x:xmptk="Adobe XMP Core 5.6-c138 79.159824, 2016/09/14-01:09:01        ">
   <rdf:RDF xmlns:rdf="http://www.w3.org/1999/02/22-rdf-syntax-ns#">
      <rdf:Description rdf:about=""/>
   </rdf:RDF>
</x:xmpmeta>
                                                                                                    
                                                                                                    
                                                                                                    
                                                                                                    
                                                                                                    
                                                                                                    
                                                                                                    
                                                                                                    
                                                                                                    
                                                                                                    
                                                                                                    
                                                                                                    
                                                                                                    
                                                                                                    
                                                                                                    
                                                                                                    
                                                                                                    
                                                                                                    
                                                                                                    
                                                                                                    
                           
<?xpacket end="w"?></metadata>
<defs>
    <style>
      .cls-1 {
        fill: #adadab;
        fill-rule: evenodd;
      }
    </style>
  </defs>
  <path id="Forma_1" data-name="Forma 1" class="cls-1" d="M1017.57,969.405l-12.74-8.824V956h-2.67v3.95h-5.321V956h-2.662v4.581L981.435,969.4a1.308,1.308,0,0,0-.333,1.833,1.333,1.333,0,0,0,1.1.565h34.613a1.328,1.328,0,0,0,1.33-1.318A1.354,1.354,0,0,0,1017.57,969.405Zm-31.151-.238,9.508-6.584h7.153l9.5,6.584H986.419Zm-9.546,38.183h-2.662a3.972,3.972,0,0,0-3.993,3.95v1.32a3.972,3.972,0,0,0,3.993,3.95h2.662a3.973,3.973,0,0,0,3.993-3.95v-1.32A3.973,3.973,0,0,0,976.873,1007.35Zm1.331,5.27a1.323,1.323,0,0,1-1.331,1.31h-2.662a1.323,1.323,0,0,1-1.331-1.31v-1.32a1.325,1.325,0,0,1,1.331-1.32h2.662a1.325,1.325,0,0,1,1.331,1.32v1.32Zm46.586-5.27h-2.66a3.967,3.967,0,0,0-3.99,3.95v1.32a3.967,3.967,0,0,0,3.99,3.95h2.66a3.967,3.967,0,0,0,3.99-3.95v-1.32A3.967,3.967,0,0,0,1024.79,1007.35Zm1.33,5.27a1.319,1.319,0,0,1-1.33,1.31h-2.66a1.319,1.319,0,0,1-1.33-1.31v-1.32a1.321,1.321,0,0,1,1.33-1.32h2.66a1.321,1.321,0,0,1,1.33,1.32v1.32Zm-14.64-5.27H987.522a3.973,3.973,0,0,0-3.994,3.95v1.32a3.973,3.973,0,0,0,3.994,3.95h23.958a3.967,3.967,0,0,0,3.99-3.95v-1.32A3.967,3.967,0,0,0,1011.48,1007.35Zm1.33,5.27a1.319,1.319,0,0,1-1.33,1.31H987.522a1.323,1.323,0,0,1-1.331-1.31v-1.32a1.325,1.325,0,0,1,1.331-1.32h23.958a1.321,1.321,0,0,1,1.33,1.32v1.32Zm17.11-9.13-2.95-1.17-8.82-12.009a6.718,6.718,0,0,0-5.39-2.711H986.24a6.7,6.7,0,0,0-5.383,2.711l-8.828,12.009-2.951,1.17a6.543,6.543,0,0,0-4.185,6.11v22.77a2.648,2.648,0,0,0,2.663,2.63h7.986a2.648,2.648,0,0,0,2.662-2.63v-5.27h42.6v5.27a2.646,2.646,0,0,0,2.66,2.63h7.99a2.646,2.646,0,0,0,2.66-2.63V1009.6A6.535,6.535,0,0,0,1029.92,1003.49Zm-46.911-11.629a4.021,4.021,0,0,1,3.231-1.628h26.52a4.013,4.013,0,0,1,3.23,1.628l7.52,10.219H975.494Zm-7.467,40.509h-7.986v-5.5a2.09,2.09,0,0,0,.35.09,1.822,1.822,0,0,0,.231.06,3.783,3.783,0,0,0,.75.08h6.655v5.27Zm55.908,0h-7.99v-5.27h6.66a3.823,3.823,0,0,0,.75-0.08,1.948,1.948,0,0,0,.23-0.06,2.251,2.251,0,0,0,.35-0.09v5.5Zm0-9.22a1.327,1.327,0,0,1-1.33,1.32H968.887a1.325,1.325,0,0,1-1.331-1.32v-1.32h63.894v1.32Zm0-3.95H967.556v-9.6a3.934,3.934,0,0,1,2.51-3.67l3.069-1.21h52.735l3.07,1.21a3.943,3.943,0,0,1,2.51,3.67v9.6h0Zm-33.28-44.767h2.66v3.95h-2.66v-3.95Zm0,6.584h2.66v3.95h-2.66v-3.95Zm-15.538-4.363,2.53-3.056,2.06,1.669-2.531,3.056Zm-4.217,5.094,2.531-3.055,2.059,1.669-2.531,3.055ZM974.2,986.84l2.531-3.055,2.06,1.669-2.531,3.055Zm-4.219,5.1,2.531-3.055,2.059,1.669-2.531,3.055Zm20.472-14.077,1.119-3.791,2.555,0.738-1.119,3.792Zm-1.868,6.31,1.121-3.791,2.555,0.739-1.121,3.791Zm-13.909-8.3,2.936-2.678,1.8,1.935-2.935,2.678Zm-4.893,4.468,2.935-2.679,1.8,1.935-2.935,2.678Zm-4.889,4.46,2.935-2.678,1.8,1.935-2.935,2.678ZM960,989.265l2.935-2.679,1.805,1.935L961.8,991.2Zm51.78-13.723,2.06-1.667,2.53,3.056-2.06,1.667Zm4.21,5.086,2.06-1.669,2.53,3.056-2.06,1.669Zm4.23,5.1,2.05-1.668,2.53,3.055-2.05,1.669Zm4.2,5.1,2.06-1.669,2.53,3.056-2.06,1.669Zm-19.54-15.73,2.55-.737,1.12,3.792-2.55.737Zm1.86,6.3,2.56-.739,1.12,3.791-2.56.739Zm12.85-5.994,1.8-1.935,2.94,2.679-1.81,1.934Zm4.89,4.467,1.81-1.934,2.93,2.678-1.8,1.934Zm4.89,4.466,1.8-1.935,2.94,2.679-1.81,1.934Zm4.89,4.459,1.8-1.935,2.94,2.678-1.8,1.935Z" transform="translate(-960 -956)"/>
</svg>
