<svg xmlns="http://www.w3.org/2000/svg" width="72" height="80" viewBox="0 0 72 80">
  <metadata><?xpacket begin="﻿" id="W5M0MpCehiHzreSzNTczkc9d"?>
<x:xmpmeta xmlns:x="adobe:ns:meta/" x:xmptk="Adobe XMP Core 5.6-c138 79.159824, 2016/09/14-01:09:01        ">
   <rdf:RDF xmlns:rdf="http://www.w3.org/1999/02/22-rdf-syntax-ns#">
      <rdf:Description rdf:about=""/>
   </rdf:RDF>
</x:xmpmeta>
                                                                                                    
                                                                                                    
                                                                                                    
                                                                                                    
                                                                                                    
                                                                                                    
                                                                                                    
                                                                                                    
                                                                                                    
                                                                                                    
                                                                                                    
                                                                                                    
                                                                                                    
                                                                                                    
                                                                                                    
                                                                                                    
                                                                                                    
                                                                                                    
                                                                                                    
                                                                                                    
                           
<?xpacket end="w"?></metadata>
<defs>
    <style>
      .cls-1 {
        fill: #acacac;
        fill-rule: evenodd;
      }
    </style>
  </defs>
  <path class="cls-1" d="M234.49,1019.18l-10.043-10.02a1.691,1.691,0,0,0-1.184-.49l-26.421-.01a18.492,18.492,0,0,0-15.18-8.32c-0.071,0-.144-0.01-0.218-0.01a76.943,76.943,0,0,0-.012-10.256H223.26a1.671,1.671,0,0,0,1.675-1.667V958.666A1.671,1.671,0,0,0,223.26,957H179.737a1.676,1.676,0,0,0-1.39.736L168.3,972.607a1.667,1.667,0,0,0,0,1.86l4.441,6.572c-0.488,2.335-.973,5.073-1.341,8.068a75.08,75.08,0,0,0-.461,14.473,18.847,18.847,0,0,0-2.457,2.03A18.334,18.334,0,0,0,181.157,1037h0.258a18.5,18.5,0,0,0,15.334-8.18l1.942,0.03,3.42,2.79a1.67,1.67,0,0,0,1.992.1l4.1-2.72,4.1,2.66a1.651,1.651,0,0,0,1.832,0l4.09-2.66,4.137,2.78a1.68,1.68,0,0,0,.937.29,1.6,1.6,0,0,0,.763-0.19l6.66-3.39a1.752,1.752,0,0,0,.734-0.74l3.347-6.67A1.657,1.657,0,0,0,234.49,1019.18Zm-62.779-45.643,8.916-13.205h40.961V986.74H180.627l-4.308-6.38c0.858-3.835,1.648-6.266,1.66-6.305a1.674,1.674,0,0,0-3.183-1.036c-0.039.121-.461,1.421-1.02,3.578Zm6.356,27.1a18.444,18.444,0,0,0-3.87,1.15,74.066,74.066,0,0,1,.52-12.215c0.2-1.613.432-3.156,0.685-4.6l2.555,3.784A74.324,74.324,0,0,1,178.067,1000.64Zm18.407,18.23a15.086,15.086,0,0,1-15.059,14.79H181.2a14.957,14.957,0,0,1-9.836-26.14,40.34,40.34,0,0,0,3.514,11.9,1.685,1.685,0,0,0,1.508.94,1.74,1.74,0,0,0,.731-0.17,1.664,1.664,0,0,0,.772-2.23,38.407,38.407,0,0,1-3.418-12.59,14.882,14.882,0,0,1,6.93-1.7h0.213a15.032,15.032,0,0,1,10.592,4.54A14.857,14.857,0,0,1,196.474,1018.87Zm32.231,6.92-5.293,2.7-4.237-2.85a1.678,1.678,0,0,0-.937-0.29,1.7,1.7,0,0,0-.915.28l-4.105,2.67-4.108-2.67a1.67,1.67,0,0,0-1.844.01l-3.987,2.64-2.913-2.38a1.648,1.648,0,0,0-1.039-.38l-0.824-.01a18.39,18.39,0,0,0,.066-13.52l24,0.01,3.362,3.36H206.521a1.665,1.665,0,1,0,0,3.33h22.75l2,1.99Zm-11.811-55.55-7.715-1.535-2.936-4.42a1.674,1.674,0,0,0-1.395-.747H193.122a1.673,1.673,0,0,0-1.4.748l-2.818,4.251h-4.152a1.669,1.669,0,0,0-1.672,1.667v8.333a1.669,1.669,0,0,0,1.672,1.666h3.637a5.028,5.028,0,0,0,9.468,0h5.6a5.028,5.028,0,0,0,9.468,0h3.637a1.669,1.669,0,0,0,1.673-1.666l0-6.664A1.667,1.667,0,0,0,216.894,970.24ZM193.127,980.2a1.667,1.667,0,1,1,1.675-1.666A1.671,1.671,0,0,1,193.127,980.2Zm15.068,0a1.667,1.667,0,1,1,1.676-1.666A1.672,1.672,0,0,1,208.2,980.2Zm6.695-3.334h-1.961a5.03,5.03,0,0,0-9.469,0h-5.6a5.03,5.03,0,0,0-9.469,0h-1.962v-5h3.377a1.676,1.676,0,0,0,1.4-.749l2.818-4.25h9.921l2.822,4.251a1.679,1.679,0,0,0,1.069.715l7.053,1.4v3.629Z" transform="translate(-163 -957)"/>
</svg>
