<svg xmlns="http://www.w3.org/2000/svg" width="80" height="80" viewBox="0 0 80 80">
  <metadata><?xpacket begin="﻿" id="W5M0MpCehiHzreSzNTczkc9d"?>
<x:xmpmeta xmlns:x="adobe:ns:meta/" x:xmptk="Adobe XMP Core 5.6-c138 79.159824, 2016/09/14-01:09:01        ">
   <rdf:RDF xmlns:rdf="http://www.w3.org/1999/02/22-rdf-syntax-ns#">
      <rdf:Description rdf:about=""/>
   </rdf:RDF>
</x:xmpmeta>
                                                                                                    
                                                                                                    
                                                                                                    
                                                                                                    
                                                                                                    
                                                                                                    
                                                                                                    
                                                                                                    
                                                                                                    
                                                                                                    
                                                                                                    
                                                                                                    
                                                                                                    
                                                                                                    
                                                                                                    
                                                                                                    
                                                                                                    
                                                                                                    
                                                                                                    
                                                                                                    
                           
<?xpacket end="w"?></metadata>
<defs>
    <style>
      .cls-1 {
        fill: #a9abaa;
        fill-rule: evenodd;
      }
    </style>
  </defs>
  <path class="cls-1" d="M616.666,1022.33v-14.66a3.926,3.926,0,0,0-4-4H612a1.321,1.321,0,0,1-1.333-.94L606,986.467v-0.134a6.739,6.739,0,0,0-6.133-4H574.8a6.736,6.736,0,0,0-6.133,4v0.134L564,1002.73a1.6,1.6,0,0,1-1.333.94H562a3.926,3.926,0,0,0-4,4v14.66a3.926,3.926,0,0,0,4,4V1033a3.926,3.926,0,0,0,4,4h2.667a3.927,3.927,0,0,0,4-4v-6.67H602V1033a3.926,3.926,0,0,0,4,4h2.666a3.926,3.926,0,0,0,4-4v-6.67A3.926,3.926,0,0,0,616.666,1022.33ZM570,1033a1.257,1.257,0,0,1-1.333,1.33H566a1.257,1.257,0,0,1-1.333-1.33v-6.67H570V1033h0Zm40,0a1.257,1.257,0,0,1-1.333,1.33H606a1.257,1.257,0,0,1-1.333-1.33v-6.67H610V1033h0Zm4-10.67a1.265,1.265,0,0,1-1.333,1.34H562a1.265,1.265,0,0,1-1.333-1.34v-14.66a1.265,1.265,0,0,1,1.333-1.34h0.667a4.123,4.123,0,0,0,3.866-2.93l4.667-16.133A4.015,4.015,0,0,1,574.8,985h25.067a3.93,3.93,0,0,1,3.6,2.267l4.666,16.133a4.124,4.124,0,0,0,3.867,2.93h0.667a1.265,1.265,0,0,1,1.333,1.34v14.66h0ZM570,1009a5.335,5.335,0,1,0,5.333,5.33A5.348,5.348,0,0,0,570,1009Zm0,8a2.665,2.665,0,1,1,2.667-2.67A2.675,2.675,0,0,1,570,1017Zm34.667-8a5.335,5.335,0,1,0,5.333,5.33A5.348,5.348,0,0,0,604.667,1009Zm0,8a2.665,2.665,0,1,1,2.666-2.67A2.675,2.675,0,0,1,604.667,1017ZM590,1015.67h-5.333a1.33,1.33,0,1,0,0,2.66H590A1.33,1.33,0,1,0,590,1015.67Zm2.667-5.34H582a1.335,1.335,0,0,0,0,2.67h10.667A1.335,1.335,0,0,0,592.667,1010.33Zm-18.134-6.66h25.734a2.775,2.775,0,0,0,2.133-1.07,2.587,2.587,0,0,0,.4-2.4l-3.2-10.667a2.6,2.6,0,0,0-2.534-1.866H577.733a2.56,2.56,0,0,0-2.533,1.866L572,1000.2a2.587,2.587,0,0,0,.4,2.4A2.775,2.775,0,0,0,574.533,1003.67Zm3.2-13.336h19.334l3.2,10.666H574.533ZM636.666,957H614a1.259,1.259,0,0,0-1.333,1.333V981A1.259,1.259,0,0,0,614,982.333h9.333v41.337h-2.666a1.258,1.258,0,0,0-1.334,1.33v4h-2.666a1.258,1.258,0,0,0-1.334,1.33v5.34a1.258,1.258,0,0,0,1.334,1.33h16a1.258,1.258,0,0,0,1.334-1.33v-5.34a1.258,1.258,0,0,0-1.334-1.33H630v-4a1.257,1.257,0,0,0-1.333-1.33H626V982.333h10.667A1.259,1.259,0,0,0,638,981V958.333A1.26,1.26,0,0,0,636.666,957Zm-5.333,77.33H618v-2.66h13.333v2.66h0Zm-4-5.33H622v-2.67h5.333V1029Zm8-49.333h-20v-20h20v20Zm-12-2.667a1.26,1.26,0,0,0,1.334-1.333V973H626a5.334,5.334,0,0,0,0-10.667h-2.667A1.259,1.259,0,0,0,622,963.667v12A1.259,1.259,0,0,0,623.333,977Zm5.333-9.333A2.674,2.674,0,0,1,626,970.334h-1.333V965H626A2.674,2.674,0,0,1,628.666,967.667Z" transform="translate(-558 -957)"/>
</svg>
